<svg class="main-svg" xmlns="http://www.w3.org/2000/svg" xmlns:xlink="http://www.w3.org/1999/xlink" width="650" height="500" style="" viewBox="0 0 650 500"><rect x="0" y="0" width="650" height="500" style="fill: rgb(255, 255, 255); fill-opacity: 1;"/><defs id="defs-961cb6"><g class="clips"><clipPath id="clip961cb6xyplot" class="plotclip"><rect width="290.0000000000001" height="320"/></clipPath><clipPath class="axesclip" id="clip961cb6x"><rect x="140.49999999999997" y="0" width="290.0000000000001" height="500"/></clipPath><clipPath class="axesclip" id="clip961cb6y"><rect x="0" y="100" width="650" height="320"/></clipPath><clipPath class="axesclip" id="clip961cb6xy"><rect x="140.49999999999997" y="100" width="290.0000000000001" height="320"/></clipPath></g><g class="gradients"/><g class="patterns"/></defs><g class="bglayer"><rect class="bg" x="140.49999999999997" y="100" width="290.0000000000001" height="320" style="fill: rgb(229, 236, 246); fill-opacity: 1; stroke-width: 0;"/></g><g class="layer-below"><g class="imagelayer"/><g class="shapelayer"/></g><g class="cartesianlayer"><g class="subplot xy"><g class="layer-subplot"><g class="shapelayer"/><g class="imagelayer"/></g><g class="minor-gridlayer"><g class="x"/><g class="y"/></g><g class="gridlayer"><g class="x"><path class="xgrid crisp" transform="translate(285.5,0)" d="M0,100v320" style="stroke: rgb(255, 255, 255); stroke-opacity: 1; stroke-width: 1px;"/><path class="xgrid crisp" transform="translate(429.5,0)" d="M0,100v320" style="stroke: rgb(255, 255, 255); stroke-opacity: 1; stroke-width: 1px;"/></g><g class="y"><path class="ygrid crisp" transform="translate(0,346.4)" d="M140.49999999999997,0h290.0000000000001" style="stroke: rgb(255, 255, 255); stroke-opacity: 1; stroke-width: 1px;"/><path class="ygrid crisp" transform="translate(0,288.8)" d="M140.49999999999997,0h290.0000000000001" style="stroke: rgb(255, 255, 255); stroke-opacity: 1; stroke-width: 1px;"/><path class="ygrid crisp" transform="translate(0,231.2)" d="M140.49999999999997,0h290.0000000000001" style="stroke: rgb(255, 255, 255); stroke-opacity: 1; stroke-width: 1px;"/><path class="ygrid crisp" transform="translate(0,173.6)" d="M140.49999999999997,0h290.0000000000001" style="stroke: rgb(255, 255, 255); stroke-opacity: 1; stroke-width: 1px;"/><path class="ygrid crisp" transform="translate(0,116)" d="M140.49999999999997,0h290.0000000000001" style="stroke: rgb(255, 255, 255); stroke-opacity: 1; stroke-width: 1px;"/></g></g><g class="zerolinelayer"><path class="xzl zl crisp" transform="translate(141.49999999999997,0)" d="M0,100v320" style="stroke: rgb(255, 255, 255); stroke-opacity: 1; stroke-width: 2px;"/><path class="yzl zl crisp" transform="translate(0,404)" d="M140.49999999999997,0h290.0000000000001" style="stroke: rgb(255, 255, 255); stroke-opacity: 1; stroke-width: 2px;"/></g><path class="xlines-below"/><path class="ylines-below"/><g class="overlines-below"/><g class="xaxislayer-below"/><g class="yaxislayer-below"/><g class="overaxes-below"/><g class="plot" transform="translate(140.49999999999997,100)" clip-path="url(#clip961cb6xyplot)"><g class="scatterlayer mlayer"><g class="trace scatter trace52eb10" style="stroke-miterlimit: 2; opacity: 1;"><g class="fills"/><g class="errorbars"/><g class="lines"><path class="js-line" d="M1,304L3.29,215.45L3.47,215.45L4.17,196.54L4.35,196.54L5.05,183.64L5.23,183.64L5.76,170.75L6.11,170.75L6.46,164.73L6.99,164.73L7.52,159.57L7.87,159.57L8.58,143.24L8.76,143.24L9.46,137.22L9.64,137.22L10.34,132.92L10.52,132.92L11.22,131.2L11.93,131.2L12.63,128.62L12.99,128.62L13.51,122.6L13.87,122.6L14.57,117.44L14.75,117.44L15.1,114.01L15.81,114.01L15.81,113.15L16.86,113.15L17.57,107.13L18.27,107.13L18.98,104.55L19.33,104.55L19.33,103.69L20.21,103.69L20.92,101.97L21.27,101.97L21.62,99.39L23.38,99.39L23.74,95.95L24.44,95.95L24.97,93.37L25.32,93.37L26.03,91.65L26.2,91.65L26.2,90.79L27.44,90.79L27.79,89.07L28.67,89.07L28.85,85.64L29.73,85.64L30.26,82.2L31.67,82.2L31.84,79.62L32.55,79.62L32.9,74.46L33.96,74.46L33.96,72.74L35.02,72.74L35.55,68.44L36.6,68.44L37.31,65.86L37.48,65.86L37.48,65L38.54,65L38.54,64.14L39.95,64.14L40.13,61.56L42.95,61.56L42.95,60.7L45.24,60.7L45.24,59.84L55.29,59.84L58.11,59.84L289,16" style="vector-effect: non-scaling-stroke; fill: none; stroke: rgb(99, 110, 250); stroke-opacity: 1; stroke-width: 2px; opacity: 1;"/></g><g class="points"/><g class="text"/></g><g class="trace scatter trace8940e8" style="stroke-miterlimit: 2; opacity: 1;"><g class="fills"/><g class="errorbars"/><g class="lines"><path class="js-line" d="M1,304L5.23,221.71L5.23,174.57L5.41,174.57L5.41,170.29L5.59,170.29L5.59,167.71L5.76,167.71L5.76,163.43L6.29,163.43L6.29,161.71L6.64,161.71L6.64,160.86L7,160.86L7,154L7.35,154L7.35,149.71L7.88,149.71L7.88,148.86L8.05,148.86L8.05,146.29L8.23,146.29L8.23,143.71L8.41,143.71L8.41,142.86L8.58,142.86L8.58,139.43L8.94,139.43L8.94,131.71L9.47,131.71L9.47,127.43L9.64,127.43L9.64,121.43L9.99,121.43L9.99,120.57L10.17,120.57L10.17,117.14L10.35,117.14L10.35,116.29L10.52,116.29L10.52,115.43L10.7,115.43L10.7,114.57L10.88,114.57L10.88,113.71L11.23,113.71L11.23,112.86L11.41,112.86L11.41,109.43L11.58,109.43L11.58,104.29L11.76,104.29L11.76,103.43L12.11,103.43L12.11,102.57L12.46,102.57L12.46,101.71L12.64,101.71L12.64,99.14L12.99,99.14L12.99,97.43L13.35,97.43L13.35,96.57L13.52,96.57L13.52,93.14L14.58,93.14L14.58,92.29L14.93,92.29L14.93,90.57L15.11,90.57L15.11,89.71L15.46,89.71L15.46,88.86L15.64,88.86L15.64,87.14L15.81,87.14L15.81,84.57L16.52,84.57L16.52,83.71L16.7,83.71L16.7,82L16.87,82L16.87,81.14L17.05,81.14L17.05,80.29L17.23,80.29L17.23,78.57L17.93,78.57L17.93,77.71L18.11,77.71L18.11,73.43L18.64,73.43L18.64,72.57L18.99,72.57L18.99,71.71L19.17,71.71L19.17,70.86L19.69,70.86L19.69,69.14L19.87,69.14L19.87,68.29L20.4,68.29L20.4,66.57L21.11,66.57L21.11,65.71L22.52,65.71L22.52,64.86L22.69,64.86L22.69,64L23.05,64L23.05,61.43L23.4,61.43L23.4,60.57L23.93,60.57L23.93,59.71L24.1,59.71L24.1,58.86L24.63,58.86L24.63,58L25.34,58L25.34,57.14L25.51,57.14L25.51,56.29L25.69,56.29L25.69,55.43L25.87,55.43L25.87,54.57L27.28,54.57L27.28,53.71L27.98,53.71L27.98,52L28.34,52L28.34,51.14L29.04,51.14L29.04,50.29L29.75,50.29L29.75,49.43L31.33,49.43L31.33,48.57L31.69,48.57L31.69,47.71L33.63,47.71L33.63,45.14L34.51,45.14L34.51,44.29L34.69,44.29L34.69,42.57L35.39,42.57L35.39,41.71L36.63,41.71L36.63,40.86L38.04,40.86L38.04,40L39.09,40L39.09,39.14L41.03,39.14L41.03,38.29L42.09,38.29L42.09,36.57L44.21,36.57L44.21,35.71L45.97,35.71L45.97,34.86L47.56,34.86L47.56,34L48.27,34L48.27,33.14L53.91,33.14L53.91,32.29L60.26,32.29L289,16" style="vector-effect: non-scaling-stroke; fill: none; stroke: rgb(239, 85, 59); stroke-opacity: 1; stroke-width: 2px; opacity: 1;"/></g><g class="points"/><g class="text"/></g><g class="trace scatter tracef92da9" style="stroke-miterlimit: 2; opacity: 1;"><g class="fills"/><g class="errorbars"/><g class="lines"><path class="js-line" d="M1,304L3.46,209.45L3.46,152.19L3.64,152.19L3.64,150.46L3.81,150.46L3.81,145.25L3.99,145.25L3.99,140.05L4.17,140.05L4.17,137.45L4.52,137.45L4.52,132.24L5.05,132.24L5.05,130.51L5.22,130.51L5.22,126.17L5.4,126.17L5.4,121.83L5.57,121.83L5.57,120.96L5.93,120.96L5.93,120.1L6.45,120.1L6.45,118.36L6.63,118.36L6.63,115.76L6.81,115.76L6.81,114.89L6.98,114.89L6.98,112.29L7.16,112.29L7.16,111.42L7.51,111.42L7.51,109.69L7.69,109.69L7.69,107.08L8.04,107.08L8.04,106.22L8.57,106.22L8.57,105.35L9.09,105.35L9.09,103.61L9.27,103.61L9.27,101.01L9.44,101.01L9.44,100.14L9.8,100.14L9.8,99.28L9.97,99.28L9.97,98.41L10.32,98.41L10.32,96.67L10.85,96.67L10.85,93.2L11.2,93.2L11.2,92.34L11.73,92.34L11.73,89.73L12.08,89.73L12.08,84.53L12.26,84.53L12.26,82.8L12.44,82.8L12.44,81.93L12.61,81.93L12.61,81.06L13.32,81.06L13.32,79.33L13.84,79.33L13.84,78.46L14.72,78.46L14.72,76.72L14.9,76.72L14.9,73.25L15.07,73.25L15.07,72.39L15.6,72.39L15.6,71.52L16.48,71.52L16.48,69.78L16.83,69.78L16.83,68.92L17.71,68.92L17.71,68.05L18.42,68.05L18.42,67.18L18.77,67.18L18.77,66.31L19.47,66.31L19.47,64.58L21.23,64.58L21.23,63.71L22.29,63.71L22.29,62.84L23.17,62.84L23.17,61.98L23.34,61.98L23.34,61.11L23.52,61.11L23.52,60.24L24.4,60.24L24.4,59.37L25.1,59.37L25.1,58.51L25.28,58.51L25.28,57.64L25.63,57.64L25.63,55.9L25.98,55.9L25.98,53.3L26.51,53.3L26.51,52.43L26.86,52.43L26.86,51.57L27.74,51.57L27.74,50.7L27.92,50.7L27.92,48.96L28.09,48.96L28.09,47.23L28.97,47.23L28.97,46.36L30.56,46.36L30.56,44.63L30.91,44.63L30.91,43.76L31.08,43.76L31.08,42.89L31.44,42.89L31.44,42.02L32.14,42.02L32.14,41.16L32.32,41.16L32.32,40.29L33.55,40.29L33.55,38.55L35.83,38.55L35.83,37.69L36.36,37.69L36.36,36.82L36.71,36.82L36.71,35.95L36.89,35.95L36.89,35.08L39,35.08L39,32.48L41.82,32.48L41.82,31.61L43.05,31.61L43.05,30.75L44.46,30.75L44.46,29.88L52.02,29.88L289,16" style="vector-effect: non-scaling-stroke; fill: none; stroke: rgb(0, 204, 150); stroke-opacity: 1; stroke-width: 2px; opacity: 1;"/></g><g class="points"/><g class="text"/></g><g class="trace scatter trace7a7db0" style="stroke-miterlimit: 2; opacity: 1;"><g class="fills"/><g class="errorbars"/><g class="lines"><path class="js-line" d="M1,304L3.29,99.75L3.65,99.75L4.18,75.82L4.53,75.82L5.24,60.44L5.76,60.44L6.47,56.17L6.65,56.17L7.18,50.18L7.53,50.18L8.06,47.62L8.76,47.62L8.94,45.06L9.82,45.06L10.53,42.49L10.88,42.49L10.88,41.64L12.65,41.64L13,39.07L14.41,39.07L15.12,36.51L16.71,36.51L16.71,33.09L20.76,33.09L20.76,32.24L30.12,32.24L289,16" style="vector-effect: non-scaling-stroke; fill: none; stroke: rgb(171, 99, 250); stroke-opacity: 1; stroke-width: 2px; opacity: 1;"/></g><g class="points"/><g class="text"/></g><g class="trace scatter trace8eaaa7" style="stroke-miterlimit: 2; opacity: 1;"><g class="fills"/><g class="errorbars"/><g class="lines"><path class="js-line" d="M1,304L2.91,84.53L3.08,84.53L3.61,80.82L3.95,80.82L4.47,70.64L4.82,70.64L5.52,62.3L5.69,62.3L6.38,52.12L6.91,52.12L7.6,43.78L7.77,43.78L8.47,35.45L8.64,35.45L9.34,32.67L11.6,32.67L11.6,30.82L12.46,30.82L13.16,28.96L13.51,28.96L13.85,27.11L16.46,27.11L17.15,24.33L19.07,24.33L19.07,23.41L20.11,23.41L20.63,21.56L21.32,21.56L21.32,20.63L22.54,20.63L30.18,20.63L289,16" style="vector-effect: non-scaling-stroke; fill: none; stroke: rgb(255, 161, 90); stroke-opacity: 1; stroke-width: 2px; opacity: 1;"/></g><g class="points"/><g class="text"/></g><g class="trace scatter trace2f3684" style="stroke-miterlimit: 2; opacity: 1;"><g class="fills"/><g class="errorbars"/><g class="lines"><path class="js-line" d="M1,304L2.05,40.45L2.4,40.45L3.09,32.3L3.62,32.3L3.62,29.58L4.49,29.58L4.84,26.87L7.11,26.87L7.45,24.15L9.37,24.15L10.07,21.43L18.27,21.43L289,16" style="vector-effect: non-scaling-stroke; fill: none; stroke: rgb(25, 211, 243); stroke-opacity: 1; stroke-width: 2px; opacity: 1;"/></g><g class="points"/><g class="text"/></g></g></g><g class="overplot"/><path class="xlines-above crisp" d="M0,0" style="fill: none;"/><path class="ylines-above crisp" d="M0,0" style="fill: none;"/><g class="overlines-above"/><g class="xaxislayer-above"><g class="xtick"><text text-anchor="middle" x="0" y="433" transform="translate(141.49999999999997,0)" style="font-family: 'Open Sans', verdana, arial, sans-serif; font-size: 12px; fill: rgb(42, 63, 95); fill-opacity: 1; white-space: pre; opacity: 1;">0</text></g><g class="xtick"><text text-anchor="middle" x="0" y="433" style="font-family: 'Open Sans', verdana, arial, sans-serif; font-size: 12px; fill: rgb(42, 63, 95); fill-opacity: 1; white-space: pre; opacity: 1;" transform="translate(285.5,0)">0.5</text></g><g class="xtick"><text text-anchor="middle" x="0" y="433" style="font-family: 'Open Sans', verdana, arial, sans-serif; font-size: 12px; fill: rgb(42, 63, 95); fill-opacity: 1; white-space: pre; opacity: 1;" transform="translate(429.5,0)">1</text></g></g><g class="yaxislayer-above"><g class="ytick"><text text-anchor="end" x="139.49999999999997" y="4.199999999999999" transform="translate(0,404)" style="font-family: 'Open Sans', verdana, arial, sans-serif; font-size: 12px; fill: rgb(42, 63, 95); fill-opacity: 1; white-space: pre; opacity: 1;">0</text></g><g class="ytick"><text text-anchor="end" x="139.49999999999997" y="4.199999999999999" style="font-family: 'Open Sans', verdana, arial, sans-serif; font-size: 12px; fill: rgb(42, 63, 95); fill-opacity: 1; white-space: pre; opacity: 1;" transform="translate(0,346.4)">0.2</text></g><g class="ytick"><text text-anchor="end" x="139.49999999999997" y="4.199999999999999" style="font-family: 'Open Sans', verdana, arial, sans-serif; font-size: 12px; fill: rgb(42, 63, 95); fill-opacity: 1; white-space: pre; opacity: 1;" transform="translate(0,288.8)">0.4</text></g><g class="ytick"><text text-anchor="end" x="139.49999999999997" y="4.199999999999999" style="font-family: 'Open Sans', verdana, arial, sans-serif; font-size: 12px; fill: rgb(42, 63, 95); fill-opacity: 1; white-space: pre; opacity: 1;" transform="translate(0,231.2)">0.6</text></g><g class="ytick"><text text-anchor="end" x="139.49999999999997" y="4.199999999999999" style="font-family: 'Open Sans', verdana, arial, sans-serif; font-size: 12px; fill: rgb(42, 63, 95); fill-opacity: 1; white-space: pre; opacity: 1;" transform="translate(0,173.6)">0.8</text></g><g class="ytick"><text text-anchor="end" x="139.49999999999997" y="4.199999999999999" style="font-family: 'Open Sans', verdana, arial, sans-serif; font-size: 12px; fill: rgb(42, 63, 95); fill-opacity: 1; white-space: pre; opacity: 1;" transform="translate(0,116)">1</text></g></g><g class="overaxes-above"/></g></g><g class="polarlayer"/><g class="smithlayer"/><g class="ternarylayer"/><g class="geolayer"/><g class="funnelarealayer"/><g class="pielayer"/><g class="iciclelayer"/><g class="treemaplayer"/><g class="sunburstlayer"/><g class="glimages"/><defs id="topdefs-961cb6"><g class="clips"/><clipPath id="legend961cb6"><rect width="139" height="124" x="0" y="0"/></clipPath></defs><g class="layer-above"><g class="imagelayer"/><g class="shapelayer"><path data-index="0" fill-rule="evenodd" d="M141.49999999999997,404L429.5,116" clip-path="url(#clip961cb6xy)" style="opacity: 1; stroke: rgb(42, 63, 95); stroke-opacity: 1; fill: rgb(0, 0, 0); fill-opacity: 0; stroke-dasharray: 9px, 9px; stroke-width: 2px;"/></g></g><g class="infolayer"><g class="legend" pointer-events="all" transform="translate(499.22,100)"><rect class="bg" shape-rendering="crispEdges" width="139" height="124" x="0" y="0" style="stroke: rgb(68, 68, 68); stroke-opacity: 1; fill: rgb(255, 255, 255); fill-opacity: 1; stroke-width: 0px;"/><g class="scrollbox" transform="" clip-path="url(#legend961cb6)"><g class="groups"><g class="traces" transform="translate(0,14.5)" style="opacity: 1;"><text class="legendtext" text-anchor="start" x="40" y="4.680000000000001" style="font-family: 'Open Sans', verdana, arial, sans-serif; font-size: 12px; fill: rgb(42, 63, 95); fill-opacity: 1; white-space: pre;">0 (AUC = 0.88)</text><g class="layers" style="opacity: 1;"><g class="legendfill"/><g class="legendlines"><path class="js-line" d="M5,0h30" style="fill: none; stroke: rgb(99, 110, 250); stroke-opacity: 1; stroke-width: 2px;"/></g><g class="legendsymbols"><g class="legendpoints"/></g></g><rect class="legendtoggle" x="0" y="-9.5" width="133.625" height="19" style="fill: rgb(0, 0, 0); fill-opacity: 0;"/></g><g class="traces" transform="translate(0,33.5)" style="opacity: 1;"><text class="legendtext" text-anchor="start" x="40" y="4.680000000000001" style="font-family: 'Open Sans', verdana, arial, sans-serif; font-size: 12px; fill: rgb(42, 63, 95); fill-opacity: 1; white-space: pre;">1 (AUC = 0.94)</text><g class="layers" style="opacity: 1;"><g class="legendfill"/><g class="legendlines"><path class="js-line" d="M5,0h30" style="fill: none; stroke: rgb(239, 85, 59); stroke-opacity: 1; stroke-width: 2px;"/></g><g class="legendsymbols"><g class="legendpoints"/></g></g><rect class="legendtoggle" x="0" y="-9.5" width="133.625" height="19" style="fill: rgb(0, 0, 0); fill-opacity: 0;"/></g><g class="traces" transform="translate(0,52.5)" style="opacity: 1;"><text class="legendtext" text-anchor="start" x="40" y="4.680000000000001" style="font-family: 'Open Sans', verdana, arial, sans-serif; font-size: 12px; fill: rgb(42, 63, 95); fill-opacity: 1; white-space: pre;">2 (AUC = 0.95)</text><g class="layers" style="opacity: 1;"><g class="legendfill"/><g class="legendlines"><path class="js-line" d="M5,0h30" style="fill: none; stroke: rgb(0, 204, 150); stroke-opacity: 1; stroke-width: 2px;"/></g><g class="legendsymbols"><g class="legendpoints"/></g></g><rect class="legendtoggle" x="0" y="-9.5" width="133.625" height="19" style="fill: rgb(0, 0, 0); fill-opacity: 0;"/></g><g class="traces" transform="translate(0,71.5)" style="opacity: 1;"><text class="legendtext" text-anchor="start" x="40" y="4.680000000000001" style="font-family: 'Open Sans', verdana, arial, sans-serif; font-size: 12px; fill: rgb(42, 63, 95); fill-opacity: 1; white-space: pre;">3 (AUC = 0.96)</text><g class="layers" style="opacity: 1;"><g class="legendfill"/><g class="legendlines"><path class="js-line" d="M5,0h30" style="fill: none; stroke: rgb(171, 99, 250); stroke-opacity: 1; stroke-width: 2px;"/></g><g class="legendsymbols"><g class="legendpoints"/></g></g><rect class="legendtoggle" x="0" y="-9.5" width="133.625" height="19" style="fill: rgb(0, 0, 0); fill-opacity: 0;"/></g><g class="traces" transform="translate(0,90.5)" style="opacity: 1;"><text class="legendtext" text-anchor="start" x="40" y="4.680000000000001" style="font-family: 'Open Sans', verdana, arial, sans-serif; font-size: 12px; fill: rgb(42, 63, 95); fill-opacity: 1; white-space: pre;">4 (AUC = 0.98)</text><g class="layers" style="opacity: 1;"><g class="legendfill"/><g class="legendlines"><path class="js-line" d="M5,0h30" style="fill: none; stroke: rgb(255, 161, 90); stroke-opacity: 1; stroke-width: 2px;"/></g><g class="legendsymbols"><g class="legendpoints"/></g></g><rect class="legendtoggle" x="0" y="-9.5" width="133.625" height="19" style="fill: rgb(0, 0, 0); fill-opacity: 0;"/></g><g class="traces" transform="translate(0,109.5)" style="opacity: 1;"><text class="legendtext" text-anchor="start" x="40" y="4.680000000000001" style="font-family: 'Open Sans', verdana, arial, sans-serif; font-size: 12px; fill: rgb(42, 63, 95); fill-opacity: 1; white-space: pre;">5 (AUC = 0.99)</text><g class="layers" style="opacity: 1;"><g class="legendfill"/><g class="legendlines"><path class="js-line" d="M5,0h30" style="fill: none; stroke: rgb(25, 211, 243); stroke-opacity: 1; stroke-width: 2px;"/></g><g class="legendsymbols"><g class="legendpoints"/></g></g><rect class="legendtoggle" x="0" y="-9.5" width="133.625" height="19" style="fill: rgb(0, 0, 0); fill-opacity: 0;"/></g></g></g><rect class="scrollbar" rx="20" ry="3" width="0" height="0" x="0" y="0" style="fill: rgb(128, 139, 164); fill-opacity: 1;"/></g><g class="g-gtitle"><text class="gtitle" x="32.5" y="50" text-anchor="start" dy="0em" style="font-family: 'Open Sans', verdana, arial, sans-serif; font-size: 17px; fill: rgb(42, 63, 95); opacity: 1; font-weight: normal; white-space: pre;">KNN ROC Curve</text></g><g class="g-xtitle"><text class="xtitle" x="285.5" y="460.3" text-anchor="middle" style="font-family: 'Open Sans', verdana, arial, sans-serif; font-size: 14px; fill: rgb(42, 63, 95); opacity: 1; font-weight: normal; white-space: pre;">False Positive Rate</text></g><g class="g-ytitle"><text class="ytitle" transform="rotate(-90,95.575,260)" x="95.575" y="260" text-anchor="middle" style="font-family: 'Open Sans', verdana, arial, sans-serif; font-size: 14px; fill: rgb(42, 63, 95); opacity: 1; font-weight: normal; white-space: pre;">True Positive Rate</text></g></g></svg>