<svg class="main-svg" xmlns="http://www.w3.org/2000/svg" xmlns:xlink="http://www.w3.org/1999/xlink" width="650" height="500" style="" viewBox="0 0 650 500"><rect x="0" y="0" width="650" height="500" style="fill: rgb(255, 255, 255); fill-opacity: 1;"/><defs id="defs-e43cb0"><g class="clips"><clipPath id="clipe43cb0xyplot" class="plotclip"><rect width="290.0000000000001" height="320"/></clipPath><clipPath class="axesclip" id="clipe43cb0x"><rect x="140.49999999999997" y="0" width="290.0000000000001" height="500"/></clipPath><clipPath class="axesclip" id="clipe43cb0y"><rect x="0" y="100" width="650" height="320"/></clipPath><clipPath class="axesclip" id="clipe43cb0xy"><rect x="140.49999999999997" y="100" width="290.0000000000001" height="320"/></clipPath></g><g class="gradients"/><g class="patterns"/></defs><g class="bglayer"><rect class="bg" x="140.49999999999997" y="100" width="290.0000000000001" height="320" style="fill: rgb(229, 236, 246); fill-opacity: 1; stroke-width: 0;"/></g><g class="layer-below"><g class="imagelayer"/><g class="shapelayer"/></g><g class="cartesianlayer"><g class="subplot xy"><g class="layer-subplot"><g class="shapelayer"/><g class="imagelayer"/></g><g class="minor-gridlayer"><g class="x"/><g class="y"/></g><g class="gridlayer"><g class="x"><path class="xgrid crisp" transform="translate(285.5,0)" d="M0,100v320" style="stroke: rgb(255, 255, 255); stroke-opacity: 1; stroke-width: 1px;"/><path class="xgrid crisp" transform="translate(429.5,0)" d="M0,100v320" style="stroke: rgb(255, 255, 255); stroke-opacity: 1; stroke-width: 1px;"/></g><g class="y"><path class="ygrid crisp" transform="translate(0,346.4)" d="M140.49999999999997,0h290.0000000000001" style="stroke: rgb(255, 255, 255); stroke-opacity: 1; stroke-width: 1px;"/><path class="ygrid crisp" transform="translate(0,288.8)" d="M140.49999999999997,0h290.0000000000001" style="stroke: rgb(255, 255, 255); stroke-opacity: 1; stroke-width: 1px;"/><path class="ygrid crisp" transform="translate(0,231.2)" d="M140.49999999999997,0h290.0000000000001" style="stroke: rgb(255, 255, 255); stroke-opacity: 1; stroke-width: 1px;"/><path class="ygrid crisp" transform="translate(0,173.6)" d="M140.49999999999997,0h290.0000000000001" style="stroke: rgb(255, 255, 255); stroke-opacity: 1; stroke-width: 1px;"/><path class="ygrid crisp" transform="translate(0,116)" d="M140.49999999999997,0h290.0000000000001" style="stroke: rgb(255, 255, 255); stroke-opacity: 1; stroke-width: 1px;"/></g></g><g class="zerolinelayer"><path class="xzl zl crisp" transform="translate(141.49999999999997,0)" d="M0,100v320" style="stroke: rgb(255, 255, 255); stroke-opacity: 1; stroke-width: 2px;"/><path class="yzl zl crisp" transform="translate(0,404)" d="M140.49999999999997,0h290.0000000000001" style="stroke: rgb(255, 255, 255); stroke-opacity: 1; stroke-width: 2px;"/></g><path class="xlines-below"/><path class="ylines-below"/><g class="overlines-below"/><g class="xaxislayer-below"/><g class="yaxislayer-below"/><g class="overaxes-below"/><g class="plot" transform="translate(140.49999999999997,100)" clip-path="url(#clipe43cb0xyplot)"><g class="scatterlayer mlayer"><g class="trace scatter trace16f824" style="stroke-miterlimit: 2; opacity: 1;"><g class="fills"/><g class="errorbars"/><g class="lines"><path class="js-line" d="M1,304L2.76,288.53L3.29,288.53L3.47,286.81L4.17,286.81L4.88,277.35L5.05,277.35L5.76,272.19L6.29,272.19L6.99,252.42L7.17,252.42L7.87,242.1L8.23,242.1L8.93,235.22L9.11,235.22L9.64,232.64L9.99,232.64L10.69,218.89L11.22,218.89L11.93,211.15L12.46,211.15L13.16,193.96L13.69,193.96L14.4,187.08L15.81,187.08L15.81,184.5L17.04,184.5L17.22,179.34L18.45,179.34L19.15,172.47L19.33,172.47L19.33,169.89L20.56,169.89L21.27,162.15L21.62,162.15L22.15,155.27L22.86,155.27L23.38,151.83L23.74,151.83L24.27,149.25L24.97,149.25L25.5,143.24L25.85,143.24L26.56,140.66L26.91,140.66L27.61,135.5L27.79,135.5L28.5,131.2L29.02,131.2L29.55,127.76L31.14,127.76L31.84,121.74L32.02,121.74L32.55,117.44L32.9,117.44L33.61,112.29L33.96,112.29L34.14,105.41L35.02,105.41L35.19,101.97L36.07,101.97L36.25,98.53L36.96,98.53L37.13,95.09L38.37,95.09L38.37,93.37L39.42,93.37L39.95,89.93L40.3,89.93L40.3,89.07L41.36,89.07L41.54,86.5L42.24,86.5L42.24,85.64L43.48,85.64L43.48,84.78L44.53,84.78L44.53,83.92L45.42,83.92L45.77,83.92L45.77,81.34L46.47,81.34L46.47,80.48L46.65,80.48L46.65,79.62L46.83,79.62L46.83,78.76L47,78.76L47,77.9L47.35,77.9L47.35,77.04L47.88,77.04L47.88,76.18L48.06,76.18L48.06,73.6L48.41,73.6L48.41,72.74L49.47,72.74L49.47,71.88L51.41,71.88L51.41,71.02L53.35,71.02L53.35,70.16L53.7,70.16L53.7,68.44L54.23,68.44L54.23,66.72L55.46,66.72L55.46,65.86L55.99,65.86L55.99,65L56.17,65L56.17,64.14L59.87,64.14L59.87,63.28L60.05,63.28L60.05,62.42L60.22,62.42L60.22,61.56L60.57,61.56L60.57,60.7L60.93,60.7L60.93,59.84L63.75,59.84L63.75,58.99L64.45,58.99L64.45,58.13L64.63,58.13L64.63,56.41L64.63,54.69L65.69,54.69L65.69,53.83L66.74,53.83L66.74,52.97L67.8,52.97L68.51,50.39L71.33,50.39L71.33,49.53L73.97,49.53L73.97,48.67L75.38,48.67L75.38,47.81L76.79,47.81L77.14,45.23L78.55,45.23L78.55,44.37L79.08,44.37L79.43,44.37L79.79,44.37L79.79,43.51L79.96,43.51L79.96,42.65L80.14,42.65L80.14,41.79L81.72,41.79L81.72,40.93L82.25,40.93L82.25,40.07L82.96,40.07L82.96,39.21L83.13,39.21L83.13,38.35L83.49,38.35L83.49,36.63L85.25,36.63L85.25,34.91L85.78,33.19L86.66,33.19L87.36,31.47L87.89,31.47L87.89,30.61L91.59,30.61L91.77,28.9L95.65,28.9L95.65,28.04L96.88,28.04L96.88,27.18L99.35,27.18L107.81,27.18L107.81,25.46L111.16,25.46L111.16,24.6L116.8,24.6L116.8,23.74L132.66,23.74L132.66,22.88L138.13,22.88L138.13,22.02L138.65,22.02L138.65,21.16L139.71,21.16L139.71,20.3L144.65,20.3L144.65,19.44L159.45,19.44L159.45,18.58L162.63,18.58L162.63,17.72L167.56,17.72L167.56,16.86L189.06,16.86L189.06,16L289,16" style="vector-effect: non-scaling-stroke; fill: none; stroke: rgb(99, 110, 250); stroke-opacity: 1; stroke-width: 2px; opacity: 1;"/></g><g class="points"/><g class="text"/></g><g class="trace scatter trace6da845" style="stroke-miterlimit: 2; opacity: 1;"><g class="fills"/><g class="errorbars"/><g class="lines"><path class="js-line" d="M1,304L6.47,295.43L6.82,293.71L6.82,292.86L7.17,292.86L7.7,292.86L7.7,292L8.58,292L9.47,287.71L11.76,287.71L11.76,286.86L12.82,286.86L12.99,281.71L14.23,281.71L14.93,279.14L15.29,279.14L15.64,277.43L16.87,277.43L17.4,274L17.75,274L17.93,272.29L19.17,272.29L19.52,264.57L20.05,264.57L20.05,263.71L20.75,263.71L20.93,263.71L21.46,262L21.99,262L22.34,258.57L23.22,258.57L23.57,256L24.28,256L24.99,248.29L25.51,248.29L25.69,244.86L26.4,244.86L27.1,238.86L27.98,238.86L27.98,238L28.87,238L29.04,233.71L30.1,233.71L30.63,231.14L31.51,231.14L32.22,227.71L32.92,227.71L33.45,224.29L34.16,224.29L34.86,221.71L35.04,221.71L35.74,216.57L36.45,216.57L36.8,213.14L37.68,213.14L38.04,211.43L38.57,211.43L38.74,209.71L39.98,209.71L40.68,204.57L40.86,204.57L41.03,202.86L42.09,202.86L42.62,201.14L44.03,201.14L44.74,196.86L45.09,196.86L45.09,195.14L46.85,195.14L47.56,191.71L48.44,191.71L48.62,190L49.68,190L50.03,186.57L50.73,186.57L51.09,184.86L52.5,184.86L53.03,183.14L53.91,183.14L53.91,182.29L54.26,182.29L55.14,182.29L55.85,173.71L56.03,173.71L56.38,171.14L56.91,171.14L56.91,170.29L58.85,170.29L58.85,169.43L59.73,169.43L60.26,166.86L60.43,166.86L60.79,166.86L61.32,160.86L61.67,160.86L62.2,155.71L62.73,155.71L62.73,154L63.96,154L63.96,152.29L65.02,152.29L65.37,149.71L66.08,149.71L66.08,148L67.14,148L67.14,146.29L68.37,146.29L68.37,143.71L71.37,143.71L71.37,142.86L72.43,142.86L73.13,139.43L73.48,139.43L73.66,137.71L75.95,137.71L75.95,136.86L77.54,136.86L77.54,134.29L78.78,134.29L78.95,130.86L80.01,130.86L80.54,127.43L80.89,127.43L81.07,125.71L81.77,125.71L81.77,124.86L82.48,124.86L83.71,124.86L83.71,123.14L84.42,123.14L84.95,123.14L84.95,122.29L86.18,122.29L86.18,121.43L87.24,121.43L87.77,119.71L89.36,119.71L89.36,118.86L90.94,118.86L91.12,117.14L93.77,117.14L95.18,117.14L95.18,116.29L96.76,116.29L96.76,115.43L97.29,115.43L97.29,114.57L100.12,114.57L100.12,112L103.29,112L103.29,111.14L104.35,111.14L104.35,109.43L104.7,109.43L104.7,108.57L105.23,108.57L105.23,106.86L110.17,106.86L110.17,104.29L111.58,104.29L111.58,103.43L112.46,103.43L112.46,101.71L115.64,101.71L115.64,100.86L116.34,100.86L116.34,100L119.69,100L119.69,99.14L119.87,99.14L119.87,98.29L120.04,98.29L120.04,97.43L120.93,97.43L120.93,96.57L122.34,96.57L122.34,95.71L122.69,95.71L122.69,94.86L124.1,94.86L124.1,94L125.16,94L125.16,93.14L125.86,93.14L125.86,92.29L126.75,92.29L126.75,91.43L127.28,91.43L127.28,90.57L127.8,90.57L127.8,89.71L128.69,89.71L128.69,88L129.74,88L129.74,87.14L129.92,87.14L129.92,86.29L130.8,86.29L130.8,84.57L130.98,84.57L130.98,83.71L131.33,83.71L131.33,82.86L133.27,82.86L133.27,82L133.62,82L133.62,81.14L134.15,81.14L134.15,80.29L137.5,80.29L137.5,79.43L137.68,79.43L137.68,78.57L138.74,78.57L138.74,77.71L139.62,77.71L139.62,76.86L140.5,76.86L140.5,76L140.68,76L140.68,75.14L141.91,75.14L141.91,74.29L142.09,74.29L142.09,73.43L144.56,73.43L144.56,72.57L146.68,72.57L146.68,71.71L147.56,71.71L147.56,70.86L148.26,70.86L148.26,70L148.62,70L148.62,69.14L148.79,69.14L148.79,68.29L148.97,68.29L148.97,67.43L154.96,67.43L154.96,66.57L155.14,66.57L155.14,65.71L158.67,65.71L158.67,64.86L159.37,64.86L159.37,64L161.49,64L161.49,63.14L161.84,63.14L161.84,62.29L164.49,62.29L164.49,61.43L164.66,61.43L164.66,60.57L166.08,60.57L166.08,58.86L169.43,58.86L169.43,58L171.19,58L171.19,57.14L172.95,57.14L172.95,56.29L175.78,56.29L175.78,55.43L177.19,55.43L177.19,54.57L179.48,54.57L179.48,53.71L180.54,53.71L180.54,52.86L180.71,52.86L180.71,52L186,52L186,51.14L186.53,51.14L186.53,50.29L189,50.29L189,49.43L190.94,49.43L190.94,48.57L191.82,48.57L191.82,46.86L192,46.86L192,46L196.41,46L196.41,44.29L197.12,44.29L197.12,42.57L198.53,42.57L198.53,40L203.11,40L203.11,39.14L203.82,39.14L203.82,38.29L204.88,38.29L204.88,37.43L205.58,37.43L205.58,36.57L208.58,36.57L208.58,35.71L229.39,35.71L229.39,34.86L232.56,34.86L232.56,34L233.27,34L233.27,33.14L235.91,33.14L235.91,32.29L238.91,32.29L238.91,31.43L240.85,31.43L240.85,30.57L242.44,30.57L242.44,28.86L242.97,28.86L242.97,28L252.67,28L252.67,27.14L254.08,27.14L254.08,26.29L254.43,26.29L254.43,25.43L254.96,25.43L254.96,24.57L255.14,24.57L255.14,23.71L255.84,23.71L255.84,22.86L259.9,22.86L259.9,22L260.08,22L260.08,21.14L262.37,21.14L262.37,20.29L263.96,20.29L263.96,19.43L269.42,19.43L269.42,18.57L274.89,18.57L274.89,17.71L276.65,17.71L276.65,16.86L288.65,16.86L288.65,16L289,16" style="vector-effect: non-scaling-stroke; fill: none; stroke: rgb(239, 85, 59); stroke-opacity: 1; stroke-width: 2px; opacity: 1;"/></g><g class="points"/><g class="text"/></g><g class="trace scatter trace6f5941" style="stroke-miterlimit: 2; opacity: 1;"><g class="fills"/><g class="errorbars"/><g class="lines"><path class="js-line" d="M1,304L2.06,304L2.06,303.13L2.76,303.13L2.76,299.66L3.29,299.66L3.29,298.8L3.46,298.8L3.46,297.93L4.87,297.93L4.87,297.06L5.4,297.06L5.4,296.19L5.57,296.19L5.57,295.33L5.93,295.33L5.93,294.46L6.45,294.46L6.45,293.59L6.63,293.59L6.63,292.72L7.51,292.72L7.51,291.86L8.92,291.86L8.92,290.12L9.27,290.12L9.27,289.25L9.44,289.25L9.44,288.39L9.8,288.39L9.8,287.52L11.73,287.52L11.73,285.78L13.32,285.78L13.32,284.05L13.49,284.05L13.49,283.18L13.67,283.18L13.67,282.31L14.02,282.31L14.02,280.58L14.55,280.58L14.55,279.71L14.9,279.71L14.9,278.84L15.25,278.84L15.25,277.11L15.6,277.11L15.6,276.24L16.48,276.24L16.48,275.37L18.24,275.37L18.24,274.51L18.77,274.51L18.77,271.9L19.12,271.9L19.12,271.04L19.47,271.04L19.47,268.43L20.35,268.43L20.35,267.57L20.53,267.57L20.53,266.7L21.94,266.7L21.94,265.83L22.46,265.83L22.46,264.96L23.52,264.96L23.52,264.1L23.7,264.1L23.7,261.49L24.22,261.49L24.22,260.63L24.4,260.63L24.4,259.76L25.63,259.76L25.63,258.89L26.16,258.89L26.16,258.02L26.69,258.02L26.69,257.16L26.86,257.16L26.86,255.42L27.04,255.42L27.04,253.69L27.21,253.69L27.21,251.95L29.32,251.95L29.32,251.08L29.5,251.08L29.5,250.22L29.68,250.22L29.68,248.48L30.91,248.48L30.91,247.61L31.26,247.61L31.26,245.01L31.44,245.01L31.44,244.14L31.79,244.14L31.79,243.28L31.96,243.28L31.96,242.41L32.67,242.41L32.67,241.54L33.9,241.54L33.9,240.67L34.08,240.67L34.08,239.81L34.6,239.81L34.6,238.94L34.78,238.94L34.78,236.34L35.31,236.34L35.31,235.47L35.48,235.47L35.48,234.6L36.19,234.6L36.19,233.73L36.71,233.73L36.71,232.87L37.42,232.87L37.42,232L37.59,232L37.59,230.27L39.53,230.27L39.53,229.4L40.23,229.4L40.23,227.66L40.41,227.66L40.41,226.8L40.94,226.8L40.94,225.06L41.11,225.06L41.11,224.19L41.82,224.19L41.82,223.33L43.58,223.33L43.58,222.46L44.81,222.46L44.81,221.59L47.09,221.59L47.09,220.72L47.27,220.72L47.27,219.86L47.97,219.86L47.97,218.99L48.85,218.99L48.85,218.12L49.21,218.12L49.21,216.39L49.38,216.39L49.38,215.52L49.73,215.52L49.73,214.65L50.26,214.65L50.26,213.78L50.44,213.78L50.44,212.92L50.79,212.92L50.79,210.31L51.32,210.31L51.32,209.45L51.67,209.45L51.67,208.58L52.55,208.58L52.55,207.71L52.72,207.71L52.72,205.98L54.31,205.98L54.31,205.11L56.24,205.11L56.24,204.24L56.42,204.24L56.42,203.37L56.77,203.37L56.77,202.51L57.65,202.51L57.65,201.64L58.18,201.64L58.18,200.77L59.23,200.77L59.23,199.9L59.76,199.9L59.76,199.04L60.11,199.04L60.11,198.17L60.46,198.17L60.46,197.3L64.16,197.3L64.16,196.43L64.51,196.43L64.51,194.7L65.04,194.7L65.04,193.83L65.57,193.83L65.57,192.96L66.97,192.96L66.97,192.1L68.56,192.1L68.56,188.63L69.09,188.63L69.09,187.76L69.26,187.76L69.26,186.02L69.61,186.02L69.61,185.16L70.14,185.16L70.14,184.29L71.2,184.29L71.2,182.55L72.78,182.55L72.78,181.69L75.95,181.69L75.95,180.82L80.17,180.82L80.17,179.08L82.46,179.08L82.46,178.22L82.98,178.22L82.98,176.48L83.16,176.48L83.16,175.61L83.34,175.61L83.34,174.75L84.39,174.75L84.39,173.88L85.1,173.88L85.1,173.01L85.45,173.01L85.45,172.14L86.15,172.14L86.15,171.28L89.14,171.28L89.14,170.41L90.55,170.41L90.55,168.67L91.25,168.67L91.25,167.81L92.13,167.81L92.13,166.94L93.36,166.94L93.36,166.07L96.71,166.07L96.71,164.34L98.11,164.34L98.11,163.47L98.47,163.47L98.47,161.73L98.82,161.73L98.82,160.87L99.87,160.87L99.87,160L100.4,160L100.4,159.13L100.58,159.13L100.58,158.27L100.75,158.27L100.75,156.53L100.93,156.53L100.93,155.66L101.11,155.66L101.11,153.93L101.28,153.93L101.28,153.06L101.46,153.06L101.46,152.19L103.92,152.19L103.92,151.33L104.1,151.33L104.1,150.46L104.62,150.46L104.62,149.59L105.33,149.59L105.33,146.99L105.5,146.99L105.5,146.12L105.86,146.12L105.86,145.25L106.56,145.25L106.56,144.39L107.09,144.39L107.09,142.65L108.67,142.65L108.67,141.78L108.85,141.78L108.85,139.18L110.08,139.18L110.08,138.31L110.25,138.31L110.25,135.71L110.61,135.71L110.61,134.84L110.78,134.84L110.78,133.98L111.49,133.98L111.49,133.11L113.6,133.11L113.6,132.24L117.29,132.24L117.29,131.37L117.82,131.37L117.82,130.51L125.03,130.51L125.03,129.64L125.74,129.64L125.74,128.77L126.62,128.77L126.62,127.9L127.49,127.9L127.49,127.04L127.67,127.04L127.67,126.17L128.9,126.17L128.9,125.3L129.43,125.3L129.43,124.43L129.61,124.43L129.61,123.57L129.96,123.57L129.96,121.83L132.24,121.83L132.24,120.1L132.42,120.1L132.42,119.23L132.6,119.23L132.6,118.36L136.64,118.36L136.64,117.49L138.58,117.49L138.58,116.63L139.46,116.63L139.46,115.76L140.51,115.76L140.51,114.89L145.09,114.89L145.09,113.16L145.97,113.16L145.97,112.29L152.3,112.29L152.3,111.42L152.65,111.42L152.65,109.69L153.18,109.69L153.18,107.95L153.88,107.95L153.88,106.22L155.64,106.22L155.64,103.61L156.35,95.81L156.52,95.81L156.88,94.07L157.76,94.07L158.11,91.47L158.63,91.47L158.99,88.87L159.69,88.87L159.69,88L161.1,88L161.8,88L161.8,86.27L163.03,86.27L163.03,85.4L163.21,85.4L163.21,84.53L163.74,84.53L163.74,83.66L163.91,83.66L163.91,82.8L165.32,82.8L165.32,80.19L166.55,80.19L166.55,79.33L167.26,79.33L167.26,78.46L167.78,78.46L167.78,77.59L168.14,77.59L168.14,76.72L168.49,76.72L168.49,75.86L168.84,75.86L168.84,74.99L169.72,74.99L169.72,73.25L169.89,73.25L169.89,71.52L170.07,71.52L170.07,70.65L171.13,70.65L171.13,68.05L171.3,68.05L171.3,66.31L171.48,66.31L171.48,65.45L172.01,65.45L172.01,64.58L172.53,64.58L172.53,63.71L173.41,63.71L173.41,62.84L173.76,62.84L173.76,60.24L174.29,60.24L174.29,59.37L175,59.37L175,57.64L176.05,57.64L176.05,56.77L176.93,56.77L176.93,55.9L180.63,55.9L180.63,55.04L185.38,55.04L185.38,53.3L185.73,53.3L185.73,52.43L188.02,52.43L188.02,51.57L192.24,51.57L192.24,50.7L194.17,50.7L194.17,49.83L194.52,49.83L194.52,48.96L195.4,48.96L195.4,48.1L195.58,48.1L195.58,47.23L196.28,47.23L196.28,46.36L196.99,46.36L196.99,45.49L198.4,45.49L198.4,44.63L201.21,44.63L201.21,43.76L203.85,43.76L203.85,42.89L204.2,42.89L204.2,42.02L230.06,42.02L230.06,41.16L236.92,41.16L236.92,40.29L237.98,40.29L237.98,39.42L239.39,39.42L239.39,38.55L240.09,38.55L240.09,37.69L261.55,37.69L261.55,35.08L262.61,35.08L262.61,34.22L263.49,34.22L263.49,33.35L267.01,33.35L267.01,32.48L268.59,32.48L268.59,31.61L268.94,31.61L268.94,30.75L270.35,30.75L270.35,29.01L270.88,29.01L270.88,28.14L271.05,28.14L271.05,26.41L274.22,26.41L274.22,24.67L275.28,24.67L275.28,23.81L276.68,23.81L276.68,22.94L278.27,22.94L278.27,21.2L278.62,21.2L278.62,20.34L279.85,20.34L279.85,19.47L280.03,19.47L280.03,18.6L280.38,18.6L280.38,16.87L280.73,16.87L280.73,16L289,16" style="vector-effect: non-scaling-stroke; fill: none; stroke: rgb(0, 204, 150); stroke-opacity: 1; stroke-width: 2px; opacity: 1;"/></g><g class="points"/><g class="text"/></g><g class="trace scatter traceb9ee3a" style="stroke-miterlimit: 2; opacity: 1;"><g class="fills"/><g class="errorbars"/><g class="lines"><path class="js-line" d="M1,304L3.47,304L3.47,303.15L4,303.15L4,302.29L5.06,302.29L5.06,301.44L5.76,301.44L5.76,300.58L5.94,300.58L5.94,298.87L6.12,298.87L6.12,298.02L6.47,298.02L6.47,296.31L7.18,296.31L7.18,295.45L7.88,295.45L7.88,294.6L8.24,294.6L8.24,293.74L8.76,293.74L8.76,292.89L10.35,292.89L10.35,292.04L13.35,292.04L13.35,291.18L14.24,291.18L14.24,290.33L15.65,290.33L15.65,289.47L16.35,289.47L16.35,288.62L16.53,288.62L16.53,287.76L17.06,287.76L17.06,286.91L17.59,286.91L17.59,285.2L17.94,285.2L17.94,284.34L18.47,284.34L18.47,283.49L19.18,283.49L19.18,281.78L19.88,281.78L19.88,280.93L25.53,280.93L25.53,280.07L26.41,280.07L26.41,279.22L26.76,279.22L26.76,278.36L27.12,278.36L27.12,277.51L28.71,277.51L28.71,276.65L29.94,276.65L29.94,274.94L30.82,274.94L30.82,274.09L31.35,274.09L31.35,273.23L32.41,273.23L32.41,272.38L33.47,272.38L33.47,271.53L34.18,271.53L34.18,270.67L35.41,270.67L35.41,269.82L35.94,269.82L35.94,268.96L36.82,268.96L36.82,267.25L37.53,267.25L37.53,265.54L38.94,265.54L38.94,264.69L39.29,264.69L39.29,263.83L40.53,263.83L40.53,262.98L41.94,262.98L41.94,262.12L46.35,262.12L46.35,260.42L47.41,260.42L47.41,258.71L50.06,258.71L50.06,257.85L50.59,257.85L50.59,257L50.94,257L50.94,256.14L51.82,256.14L51.82,255.29L52,255.29L52,254.43L52.71,254.43L52.71,253.58L52.88,253.58L52.88,252.72L53.94,252.72L53.94,251.87L54.29,251.87L54.29,251.01L59.59,251.01L59.59,250.16L63.29,250.16L63.29,249.31L65.59,249.31L65.59,248.45L65.94,248.45L65.94,246.74L66.65,246.74L66.65,245.89L66.82,245.89L66.82,245.03L69.47,245.03L69.47,244.18L71.41,244.18L71.41,243.32L71.94,243.32L71.94,242.47L73,242.47L73,240.76L74.06,240.76L74.06,239.05L77.06,239.05L77.06,238.2L77.94,238.2L77.94,237.34L81.65,237.34L81.65,236.49L83.76,236.49L83.76,235.63L88.71,235.63L88.71,234.78L89.41,234.78L89.41,233.92L91.53,233.92L91.53,233.07L96.12,233.07L96.12,232.21L97.53,232.21L97.53,231.36L99.65,231.36L99.65,228.8L100.53,228.8L100.53,227.94L103.35,227.94L103.35,227.09L104.76,227.09L104.76,226.23L106.35,226.23L106.35,225.38L106.88,225.38L106.88,224.52L108.29,224.52L108.29,223.67L108.82,223.67L108.82,222.81L109.35,222.81L109.35,221.96L110.06,221.96L110.06,221.1L112,221.1L112,220.25L112.35,220.25L112.35,219.39L112.71,219.39L112.71,218.54L112.88,218.54L112.88,215.98L113.24,215.98L113.24,215.12L113.41,215.12L113.41,214.27L115.71,214.27L115.71,212.56L118.35,212.56L118.35,211.7L119.24,211.7L119.24,210.85L119.59,210.85L119.59,209.99L123.65,209.99L123.65,209.14L125.24,209.14L125.24,208.28L136.18,208.28L136.18,207.43L140.06,207.43L140.06,206.58L140.59,206.58L140.59,205.72L142.18,205.72L142.18,204.87L144.29,204.87L144.29,203.16L145.88,203.16L145.88,202.3L146.41,202.3L146.41,201.45L152.41,201.45L152.41,200.59L154,200.59L154,199.74L154.18,199.74L154.18,198.88L155.76,198.88L155.76,198.03L157.35,198.03L157.35,196.32L157.53,196.32L157.53,195.47L158.24,195.47L158.24,194.61L158.76,194.61L158.76,193.76L159.12,193.76L159.12,192.9L160.18,192.9L160.18,192.05L161.59,192.05L161.59,189.48L163.88,189.48L163.88,188.63L164.06,188.63L164.06,187.77L164.24,187.77L164.24,186.92L164.94,186.92L164.94,186.07L165.12,186.07L165.12,185.21L165.47,185.21L165.47,183.5L165.65,183.5L165.65,180.94L166.53,180.94L166.53,180.08L166.71,180.08L166.71,179.23L167.94,179.23L167.94,178.37L168.82,178.37L168.82,176.66L169.53,176.66L169.53,175.81L169.71,175.81L169.71,174.96L170.06,174.96L170.06,172.39L170.41,172.39L170.41,171.54L170.59,171.54L170.59,170.68L170.76,170.68L170.76,169.83L171.65,169.83L171.65,168.97L173.59,168.97L173.59,168.12L174.12,168.12L174.12,167.26L174.65,167.26L174.65,166.41L174.82,166.41L174.82,165.55L175.18,165.55L175.18,164.7L175.35,164.7L175.35,163.85L175.88,163.85L175.88,162.99L177.65,162.99L177.65,162.14L177.82,162.14L177.82,159.57L179.94,159.57L179.94,158.72L181.53,158.72L181.53,157.86L182.94,157.86L182.94,157.01L183.47,157.01L183.47,156.15L187.18,156.15L187.18,153.59L187.71,153.59L187.71,151.88L188.24,151.88L188.24,151.03L188.41,151.03L188.41,150.17L188.59,150.17L188.59,146.75L188.94,146.75L188.94,145.9L189.29,145.9L189.29,145.04L189.82,145.04L189.82,144.19L191.59,144.19L191.59,142.48L191.76,142.48L191.76,141.63L192.82,141.63L192.82,139.92L193.35,139.92L193.35,139.06L193.53,139.06L193.53,138.21L193.88,138.21L193.88,137.35L194.94,137.35L194.94,135.64L195.12,135.64L195.12,133.93L196,133.93L196,132.23L196.71,132.23L196.71,130.52L197.41,130.52L197.41,129.66L197.94,129.66L197.94,128.81L198.12,128.81L198.12,127.95L198.29,127.95L198.29,127.1L199.71,127.1L199.71,124.53L200.41,124.53L200.41,123.68L200.76,123.68L200.76,122.82L201.12,122.82L201.12,121.97L201.29,121.97L201.29,120.26L202,120.26L202,119.41L202.53,119.41L202.53,118.55L202.88,118.55L202.88,117.7L203.06,117.7L203.06,115.13L203.41,115.13L203.41,114.28L205.35,114.28L205.35,113.42L205.71,113.42L205.71,112.57L205.88,112.57L205.88,108.3L206.24,108.3L206.24,106.59L206.41,106.59L206.41,105.73L206.59,105.73L206.59,104.02L206.76,104.02L206.76,103.17L206.94,103.17L206.94,101.46L207.47,101.46L207.47,100.61L207.82,100.61L207.82,99.75L210.65,99.75L210.65,98.9L211.88,98.9L211.88,98.04L212.06,98.04L212.06,96.33L212.24,96.33L212.24,92.91L213.29,92.91L213.29,92.06L213.65,92.06L213.65,91.2L213.82,91.2L213.82,88.64L214.18,88.64L214.18,87.79L214.35,87.79L214.35,86.93L214.53,86.93L214.53,86.08L214.88,86.08L214.88,85.22L216.47,85.22L216.47,83.51L216.65,83.51L216.65,82.66L218.41,82.66L218.41,81.8L218.76,81.8L218.76,80.09L219.82,80.09L219.82,79.24L220.35,79.24L220.35,78.39L221.76,78.39L221.76,77.53L225.12,77.53L225.12,76.68L227.24,76.68L227.24,75.82L232,75.82L232,74.97L232.35,74.97L232.35,74.11L235,74.11L235,73.26L236.06,73.26L236.06,72.4L238.88,72.4L238.88,70.69L239.41,70.69L239.41,69.84L248.06,69.84L248.06,68.99L249.29,68.99L249.29,68.13L250.18,68.13L250.18,67.28L251.06,67.28L251.06,66.42L251.41,66.42L251.41,65.57L253.35,65.57L253.35,64.71L255.82,64.71L255.82,63.86L256.53,63.86L256.53,61.29L257.41,61.29L257.41,60.44L257.76,60.44L257.76,59.58L260.24,59.58L260.24,58.73L262.35,58.73L262.35,57.02L262.88,57.02L262.88,56.17L263.41,56.17L263.41,52.75L263.94,52.75L263.94,51.89L264.12,51.89L264.12,51.04L264.29,51.04L264.29,50.18L264.82,50.18L264.82,49.33L265.71,49.33L265.71,48.47L266.59,48.47L266.59,47.62L266.76,47.62L266.76,45.91L266.94,45.91L266.94,45.06L267.65,45.06L267.65,44.2L268,44.2L268,41.64L268.18,41.64L268.18,40.78L268.71,40.78L268.71,39.07L268.88,39.07L268.88,38.22L269.24,38.22L269.24,37.36L269.41,37.36L269.41,34.8L269.76,34.8L269.76,33.95L270.12,33.95L270.12,33.09L270.29,33.09L270.29,30.53L271.88,30.53L271.88,29.67L272.24,29.67L272.24,27.96L272.94,27.96L272.94,27.11L277.71,27.11L277.71,26.26L278.06,26.26L278.06,23.69L278.59,23.69L278.59,22.84L278.94,22.84L278.94,21.98L284.41,21.98L284.41,21.13L288.12,21.13L288.12,20.27L289,20.27L289,16" style="vector-effect: non-scaling-stroke; fill: none; stroke: rgb(171, 99, 250); stroke-opacity: 1; stroke-width: 2px; opacity: 1;"/></g><g class="points"/><g class="text"/></g><g class="trace scatter trace5ee040" style="stroke-miterlimit: 2; opacity: 1;"><g class="fills"/><g class="errorbars"/><g class="lines"><path class="js-line" d="M1,304L120.51,88.23L120.51,87.31L120.86,83.6L121.03,83.6L121.38,82.68L122.24,79.9L122.59,79.9L123.11,79.9L123.11,78.97L123.81,78.97L123.98,78.05L124.68,78.05L124.68,77.12L125.89,77.12L125.89,76.19L126.59,76.19L126.59,75.27L127.46,75.27L127.46,73.41L127.98,73.41L127.98,72.49L128.15,72.49L128.15,71.56L129.54,71.56L129.54,70.64L130.58,70.64L130.58,69.71L130.93,69.71L130.93,68.78L131.97,68.78L131.97,67.86L132.49,67.86L132.49,66.93L133.88,66.93L133.88,66.01L135.62,66.01L135.62,65.08L136.31,65.08L136.31,64.15L136.84,64.15L136.84,63.23L137.18,63.23L137.18,62.3L138.05,62.3L138.05,60.45L138.92,60.45L138.92,58.6L139.79,58.6L139.79,57.67L141,57.67L141,54.89L141.18,54.89L141.18,53.04L142.92,53.04L142.92,52.12L143.26,52.12L143.26,51.19L143.61,51.19L143.61,50.26L145.52,50.26L145.52,47.49L147.78,47.49L147.78,46.56L148.47,46.56L148.47,44.71L149.52,44.71L149.52,43.78L150.56,43.78L150.56,42.86L152.12,42.86L152.12,41.93L153.86,41.93L153.86,41L157.33,41L157.33,40.08L158.38,40.08L158.38,39.15L158.9,39.15L158.9,38.23L159.42,38.23L159.42,37.3L159.59,37.3L159.59,36.37L161.5,36.37L161.5,35.45L163.41,35.45L163.41,34.52L164.8,34.52L164.8,33.59L165.84,33.59L165.84,32.67L166.54,32.67L166.54,31.74L166.89,31.74L166.89,29.89L167.93,29.89L167.93,28.96L168.1,28.96L168.1,28.04L168.62,28.04L168.62,27.11L170.19,27.11L170.19,26.19L171.06,26.19L171.06,25.26L173.31,25.26L173.31,23.41L175.4,23.41L175.4,22.48L175.57,22.48L175.57,21.56L176.27,21.56L176.27,20.63L177.83,20.63L177.83,19.7L188.6,19.7L188.6,18.78L188.77,18.78L188.77,17.85L196.24,17.85L196.24,16.93L202.84,16.93L202.84,16L289,16" style="vector-effect: non-scaling-stroke; fill: none; stroke: rgb(255, 161, 90); stroke-opacity: 1; stroke-width: 2px; opacity: 1;"/></g><g class="points"/><g class="text"/></g><g class="trace scatter tracea134bb" style="stroke-miterlimit: 2; opacity: 1;"><g class="fills"/><g class="errorbars"/><g class="lines"><path class="js-line" d="M1,304L14.26,304L14.26,303.09L14.43,303.09L14.43,301.28L14.96,301.28L14.96,300.38L15.13,300.38L15.13,296.75L15.3,296.75L15.3,295.85L15.65,295.85L15.65,293.13L15.83,293.13L15.83,292.23L17.22,292.23L17.22,291.32L17.57,291.32L17.57,289.51L17.92,289.51L17.92,288.6L18.1,288.6L18.1,285.89L18.27,285.89L18.27,284.08L18.97,284.08L18.97,283.17L19.67,283.17L19.67,282.26L20.01,282.26L20.01,281.36L20.71,281.36L20.71,280.45L21.24,280.45L21.24,278.64L21.58,278.64L21.58,277.74L21.76,277.74L21.76,276.83L21.93,276.83L21.93,274.11L22.11,274.11L22.11,271.4L22.28,271.4L22.28,266.87L22.8,266.87L22.8,264.15L22.98,264.15L22.98,262.34L23.5,262.34L23.5,260.53L24.03,260.53L24.03,257.81L24.2,257.81L24.2,256.91L24.37,256.91L24.37,255.09L24.55,255.09L24.55,254.19L25.07,254.19L25.07,250.57L25.42,250.57L25.42,249.66L25.94,249.66L25.94,248.75L26.47,248.75L26.47,246.04L26.64,246.04L26.64,245.13L26.82,245.13L26.82,244.23L27.17,244.23L27.17,242.42L27.34,242.42L27.34,239.7L27.51,239.7L27.51,237.89L28.56,237.89L28.56,236.98L28.74,236.98L28.74,231.55L29.26,231.55L29.26,229.74L29.43,229.74L29.43,228.83L30.13,228.83L30.13,225.21L30.83,225.21L30.83,224.3L31.53,224.3L31.53,223.4L31.7,223.4L31.7,222.49L31.88,222.49L31.88,220.68L32.05,220.68L32.05,219.77L32.22,219.77L32.22,218.87L32.75,218.87L32.75,216.15L33.1,216.15L33.1,215.25L33.27,215.25L33.27,213.43L33.79,213.43L33.79,211.62L33.97,211.62L33.97,208L34.14,208L34.14,207.09L34.67,207.09L34.67,202.57L35.02,202.57L35.02,200.75L35.19,200.75L35.19,198.94L35.36,198.94L35.36,198.04L36.06,198.04L36.06,197.13L36.24,197.13L36.24,196.23L36.41,196.23L36.41,195.32L36.93,195.32L36.93,194.42L37.46,194.42L37.46,193.51L37.63,193.51L37.63,192.6L37.98,192.6L37.98,191.7L38.16,191.7L38.16,190.79L38.5,190.79L38.5,189.89L38.68,189.89L38.68,188.98L38.85,188.98L38.85,188.08L39.55,188.08L39.55,187.17L39.73,187.17L39.73,186.26L39.9,186.26L39.9,185.36L40.6,185.36L40.6,184.45L40.77,184.45L40.77,180.83L41.3,180.83L41.3,179.92L41.82,179.92L41.82,179.02L42.17,179.02L42.17,178.11L42.52,178.11L42.52,176.3L43.04,176.3L43.04,173.58L43.21,173.58L43.21,172.68L43.39,172.68L43.39,171.77L44.26,171.77L44.26,167.25L44.44,167.25L44.44,165.43L44.61,165.43L44.61,162.72L44.96,162.72L44.96,161.81L45.31,161.81L45.31,158.19L45.48,158.19L45.48,155.47L45.66,155.47L45.66,153.66L47.05,153.66L47.05,152.75L47.58,152.75L47.58,151.85L47.75,151.85L47.75,150.04L48.62,150.04L48.62,147.32L49.15,147.32L49.15,143.7L49.49,143.7L49.49,142.79L49.84,142.79L49.84,141.89L50.02,141.89L50.02,140.08L50.54,140.08L50.54,135.55L50.72,135.55L50.72,134.64L50.89,134.64L50.89,131.92L51.76,131.92L51.76,130.11L52.46,130.11L52.46,129.21L52.81,129.21L52.81,128.3L52.98,128.3L52.98,127.4L53.16,127.4L53.16,126.49L54.03,126.49L54.03,125.58L54.2,125.58L54.2,122.87L54.38,122.87L54.38,121.96L54.55,121.96L54.55,121.06L55.25,121.06L55.25,120.15L55.6,120.15L55.6,119.25L56.12,119.25L56.12,118.34L56.3,118.34L56.3,116.53L56.47,116.53L56.47,115.62L56.65,115.62L56.65,114.72L57.34,114.72L57.34,113.81L57.52,113.81L57.52,111.09L57.87,111.09L57.87,110.19L58.22,110.19L58.22,109.28L58.39,109.28L58.39,108.38L58.74,108.38L58.74,107.47L59.26,107.47L59.26,106.57L59.96,106.57L59.96,105.66L60.48,105.66L60.48,104.75L61.01,104.75L61.01,103.85L61.36,103.85L61.36,102.94L61.53,102.94L61.53,102.04L61.88,93.89L62.93,93.89L63.1,92.08L64.32,92.08L65.02,90.26L67.29,90.26L67.29,89.36L67.81,89.36L68.16,89.36L69.55,89.36L69.55,88.45L70.25,88.45L70.25,86.64L71.12,86.64L71.12,85.74L71.3,85.74L71.3,84.83L71.82,84.83L71.82,83.02L72.87,83.02L72.87,82.11L75.66,82.11L75.66,81.21L81.59,81.21L81.59,80.3L83.34,80.3L83.34,78.49L83.51,78.49L83.51,77.58L83.68,77.58L83.68,76.68L84.03,76.68L84.03,75.77L84.38,75.77L84.38,74.87L84.91,74.87L84.91,73.96L85.78,73.96L85.78,73.06L87,73.06L87,72.15L87.52,72.15L87.52,71.25L87.87,71.25L87.87,69.43L89.27,69.43L89.27,67.62L91.36,67.62L91.36,66.72L92.41,66.72L92.41,65.81L92.58,65.81L92.58,64.91L92.93,64.91L92.93,64L93.63,64L93.63,63.09L94.67,63.09L94.67,62.19L95.72,62.19L95.72,61.28L96.07,61.28L96.07,60.38L96.42,60.38L96.42,59.47L97.99,59.47L97.99,58.57L99.21,58.57L99.21,57.66L99.56,57.66L99.56,56.75L100.61,56.75L100.61,55.85L101.83,55.85L101.83,54.94L102,54.94L102,53.13L102.35,53.13L102.35,52.23L103.22,52.23L103.22,51.32L103.57,51.32L103.57,49.51L103.75,49.51L103.75,47.7L104.09,47.7L104.09,46.79L105.84,46.79L105.84,45.89L106.19,45.89L106.19,44.98L107.76,44.98L107.76,44.08L108.11,44.08L108.11,43.17L109.33,43.17L109.33,42.26L111.94,42.26L111.94,41.36L113.16,41.36L113.16,40.45L114.91,40.45L114.91,39.55L115.08,39.55L115.08,38.64L117.53,38.64L117.53,37.74L118.22,37.74L118.22,35.02L118.75,35.02L118.75,34.11L120.67,34.11L120.67,33.21L120.84,33.21L120.84,32.3L124.15,32.3L124.15,30.49L125.55,30.49L125.55,29.58L129.04,29.58L129.04,28.68L129.21,28.68L129.21,27.77L129.39,27.77L129.39,26.87L129.91,26.87L129.91,25.96L132.88,25.96L132.88,25.06L134.27,25.06L134.27,24.15L134.8,24.15L134.8,23.25L135.84,23.25L135.84,22.34L140.73,22.34L140.73,21.43L143.69,21.43L143.69,20.53L147.18,20.53L147.18,19.62L147.7,19.62L147.7,16.91L152.41,16.91L152.41,16L289,16" style="vector-effect: non-scaling-stroke; fill: none; stroke: rgb(25, 211, 243); stroke-opacity: 1; stroke-width: 2px; opacity: 1;"/></g><g class="points"/><g class="text"/></g></g></g><g class="overplot"/><path class="xlines-above crisp" d="M0,0" style="fill: none;"/><path class="ylines-above crisp" d="M0,0" style="fill: none;"/><g class="overlines-above"/><g class="xaxislayer-above"><g class="xtick"><text text-anchor="middle" x="0" y="433" transform="translate(141.49999999999997,0)" style="font-family: 'Open Sans', verdana, arial, sans-serif; font-size: 12px; fill: rgb(42, 63, 95); fill-opacity: 1; white-space: pre; opacity: 1;">0</text></g><g class="xtick"><text text-anchor="middle" x="0" y="433" style="font-family: 'Open Sans', verdana, arial, sans-serif; font-size: 12px; fill: rgb(42, 63, 95); fill-opacity: 1; white-space: pre; opacity: 1;" transform="translate(285.5,0)">0.5</text></g><g class="xtick"><text text-anchor="middle" x="0" y="433" style="font-family: 'Open Sans', verdana, arial, sans-serif; font-size: 12px; fill: rgb(42, 63, 95); fill-opacity: 1; white-space: pre; opacity: 1;" transform="translate(429.5,0)">1</text></g></g><g class="yaxislayer-above"><g class="ytick"><text text-anchor="end" x="139.49999999999997" y="4.199999999999999" transform="translate(0,404)" style="font-family: 'Open Sans', verdana, arial, sans-serif; font-size: 12px; fill: rgb(42, 63, 95); fill-opacity: 1; white-space: pre; opacity: 1;">0</text></g><g class="ytick"><text text-anchor="end" x="139.49999999999997" y="4.199999999999999" style="font-family: 'Open Sans', verdana, arial, sans-serif; font-size: 12px; fill: rgb(42, 63, 95); fill-opacity: 1; white-space: pre; opacity: 1;" transform="translate(0,346.4)">0.2</text></g><g class="ytick"><text text-anchor="end" x="139.49999999999997" y="4.199999999999999" style="font-family: 'Open Sans', verdana, arial, sans-serif; font-size: 12px; fill: rgb(42, 63, 95); fill-opacity: 1; white-space: pre; opacity: 1;" transform="translate(0,288.8)">0.4</text></g><g class="ytick"><text text-anchor="end" x="139.49999999999997" y="4.199999999999999" style="font-family: 'Open Sans', verdana, arial, sans-serif; font-size: 12px; fill: rgb(42, 63, 95); fill-opacity: 1; white-space: pre; opacity: 1;" transform="translate(0,231.2)">0.6</text></g><g class="ytick"><text text-anchor="end" x="139.49999999999997" y="4.199999999999999" style="font-family: 'Open Sans', verdana, arial, sans-serif; font-size: 12px; fill: rgb(42, 63, 95); fill-opacity: 1; white-space: pre; opacity: 1;" transform="translate(0,173.6)">0.8</text></g><g class="ytick"><text text-anchor="end" x="139.49999999999997" y="4.199999999999999" style="font-family: 'Open Sans', verdana, arial, sans-serif; font-size: 12px; fill: rgb(42, 63, 95); fill-opacity: 1; white-space: pre; opacity: 1;" transform="translate(0,116)">1</text></g></g><g class="overaxes-above"/></g></g><g class="polarlayer"/><g class="smithlayer"/><g class="ternarylayer"/><g class="geolayer"/><g class="funnelarealayer"/><g class="pielayer"/><g class="iciclelayer"/><g class="treemaplayer"/><g class="sunburstlayer"/><g class="glimages"/><defs id="topdefs-e43cb0"><g class="clips"/><clipPath id="legende43cb0"><rect width="139" height="124" x="0" y="0"/></clipPath></defs><g class="layer-above"><g class="imagelayer"/><g class="shapelayer"><path data-index="0" fill-rule="evenodd" d="M141.49999999999997,404L429.5,116" clip-path="url(#clipe43cb0xy)" style="opacity: 1; stroke: rgb(42, 63, 95); stroke-opacity: 1; fill: rgb(0, 0, 0); fill-opacity: 0; stroke-dasharray: 9px, 9px; stroke-width: 2px;"/></g></g><g class="infolayer"><g class="legend" pointer-events="all" transform="translate(499.22,100)"><rect class="bg" shape-rendering="crispEdges" style="stroke: rgb(68, 68, 68); stroke-opacity: 1; fill: rgb(255, 255, 255); fill-opacity: 1; stroke-width: 0px;" width="139" height="124" x="0" y="0"/><g class="scrollbox" transform="" clip-path="url(#legende43cb0)"><g class="groups"><g class="traces" transform="translate(0,14.5)" style="opacity: 1;"><text class="legendtext" text-anchor="start" x="40" y="4.680000000000001" style="font-family: 'Open Sans', verdana, arial, sans-serif; font-size: 12px; fill: rgb(42, 63, 95); fill-opacity: 1; white-space: pre;">0 (AUC = 0.89)</text><g class="layers" style="opacity: 1;"><g class="legendfill"/><g class="legendlines"><path class="js-line" d="M5,0h30" style="fill: none; stroke: rgb(99, 110, 250); stroke-opacity: 1; stroke-width: 2px;"/></g><g class="legendsymbols"><g class="legendpoints"/></g></g><rect class="legendtoggle" x="0" y="-9.5" width="133.625" height="19" style="fill: rgb(0, 0, 0); fill-opacity: 0;"/></g><g class="traces" transform="translate(0,33.5)" style="opacity: 1;"><text class="legendtext" text-anchor="start" x="40" y="4.680000000000001" style="font-family: 'Open Sans', verdana, arial, sans-serif; font-size: 12px; fill: rgb(42, 63, 95); fill-opacity: 1; white-space: pre;">1 (AUC = 0.70)</text><g class="layers" style="opacity: 1;"><g class="legendfill"/><g class="legendlines"><path class="js-line" d="M5,0h30" style="fill: none; stroke: rgb(239, 85, 59); stroke-opacity: 1; stroke-width: 2px;"/></g><g class="legendsymbols"><g class="legendpoints"/></g></g><rect class="legendtoggle" x="0" y="-9.5" width="133.625" height="19" style="fill: rgb(0, 0, 0); fill-opacity: 0;"/></g><g class="traces" transform="translate(0,52.5)" style="opacity: 1;"><text class="legendtext" text-anchor="start" x="40" y="4.680000000000001" style="font-family: 'Open Sans', verdana, arial, sans-serif; font-size: 12px; fill: rgb(42, 63, 95); fill-opacity: 1; white-space: pre;">2 (AUC = 0.63)</text><g class="layers" style="opacity: 1;"><g class="legendfill"/><g class="legendlines"><path class="js-line" d="M5,0h30" style="fill: none; stroke: rgb(0, 204, 150); stroke-opacity: 1; stroke-width: 2px;"/></g><g class="legendsymbols"><g class="legendpoints"/></g></g><rect class="legendtoggle" x="0" y="-9.5" width="133.625" height="19" style="fill: rgb(0, 0, 0); fill-opacity: 0;"/></g><g class="traces" transform="translate(0,71.5)" style="opacity: 1;"><text class="legendtext" text-anchor="start" x="40" y="4.680000000000001" style="font-family: 'Open Sans', verdana, arial, sans-serif; font-size: 12px; fill: rgb(42, 63, 95); fill-opacity: 1; white-space: pre;">3 (AUC = 0.45)</text><g class="layers" style="opacity: 1;"><g class="legendfill"/><g class="legendlines"><path class="js-line" d="M5,0h30" style="fill: none; stroke: rgb(171, 99, 250); stroke-opacity: 1; stroke-width: 2px;"/></g><g class="legendsymbols"><g class="legendpoints"/></g></g><rect class="legendtoggle" x="0" y="-9.5" width="133.625" height="19" style="fill: rgb(0, 0, 0); fill-opacity: 0;"/></g><g class="traces" transform="translate(0,90.5)" style="opacity: 1;"><text class="legendtext" text-anchor="start" x="40" y="4.680000000000001" style="font-family: 'Open Sans', verdana, arial, sans-serif; font-size: 12px; fill: rgb(42, 63, 95); fill-opacity: 1; white-space: pre;">4 (AUC = 0.72)</text><g class="layers" style="opacity: 1;"><g class="legendfill"/><g class="legendlines"><path class="js-line" d="M5,0h30" style="fill: none; stroke: rgb(255, 161, 90); stroke-opacity: 1; stroke-width: 2px;"/></g><g class="legendsymbols"><g class="legendpoints"/></g></g><rect class="legendtoggle" x="0" y="-9.5" width="133.625" height="19" style="fill: rgb(0, 0, 0); fill-opacity: 0;"/></g><g class="traces" transform="translate(0,109.5)" style="opacity: 1;"><text class="legendtext" text-anchor="start" x="40" y="4.680000000000001" style="font-family: 'Open Sans', verdana, arial, sans-serif; font-size: 12px; fill: rgb(42, 63, 95); fill-opacity: 1; white-space: pre;">5 (AUC = 0.81)</text><g class="layers" style="opacity: 1;"><g class="legendfill"/><g class="legendlines"><path class="js-line" d="M5,0h30" style="fill: none; stroke: rgb(25, 211, 243); stroke-opacity: 1; stroke-width: 2px;"/></g><g class="legendsymbols"><g class="legendpoints"/></g></g><rect class="legendtoggle" x="0" y="-9.5" width="133.625" height="19" style="fill: rgb(0, 0, 0); fill-opacity: 0;"/></g></g></g><rect class="scrollbar" rx="20" ry="3" width="0" height="0" style="fill: rgb(128, 139, 164); fill-opacity: 1;" x="0" y="0"/></g><g class="g-gtitle"><text class="gtitle" x="32.5" y="50" text-anchor="start" dy="0em" style="font-family: 'Open Sans', verdana, arial, sans-serif; font-size: 17px; fill: rgb(42, 63, 95); opacity: 1; font-weight: normal; white-space: pre;">Multi-Layer Perceptron ROC Curve</text></g><g class="g-xtitle"><text class="xtitle" x="285.5" y="460.3" text-anchor="middle" style="font-family: 'Open Sans', verdana, arial, sans-serif; font-size: 14px; fill: rgb(42, 63, 95); opacity: 1; font-weight: normal; white-space: pre;">False Positive Rate</text></g><g class="g-ytitle"><text class="ytitle" transform="rotate(-90,95.575,260)" x="95.575" y="260" text-anchor="middle" style="font-family: 'Open Sans', verdana, arial, sans-serif; font-size: 14px; fill: rgb(42, 63, 95); opacity: 1; font-weight: normal; white-space: pre;">True Positive Rate</text></g></g></svg>